<?xml version="1.0" ?>
<svg xmlns="http://www.w3.org/2000/svg" xmlns:ev="http://www.w3.org/2001/xml-events" xmlns:xlink="http://www.w3.org/1999/xlink" baseProfile="full" height="48.0mm" version="1.1" viewBox="-27.949066666666646 -37.29406666666664 56.281466666666624 73.8214666666666" width="48.0mm">
	<defs/>
	<path d="M 1.0,8.5 L -1.3833333333333333,8.883333333333333 L -1.766666666666667,-9.266666666666664 L 2.15,-9.65 L 2.5333333333333337,10.033333333333331 L -2.9166666666666665,10.416666666666664 L -3.3000000000000007,-10.799999999999995 L 3.6833333333333327,-11.183333333333332 L 4.066666666666666,11.566666666666665 L -4.449999999999999,11.949999999999996 L -4.833333333333334,-12.333333333333327 L 5.216666666666665,-12.716666666666665 L 5.6,13.099999999999993 L -5.9833333333333325,13.483333333333327 L -6.366666666666667,-13.866666666666656 L 6.749999999999997,-14.249999999999996 L 7.133333333333333,14.633333333333326 L -7.516666666666666,15.016666666666659 L -7.9,-15.399999999999988 L 8.283333333333331,-15.783333333333328 L 8.666666666666666,16.166666666666657 L -9.049999999999997,16.54999999999999 L -9.433333333333334,-16.93333333333332 L 9.816666666666661,-17.316666666666656 L 10.199999999999998,17.69999999999999 L -10.583333333333329,18.08333333333332 L -10.966666666666665,-18.46666666666665 L 11.349999999999993,-18.84999999999999 L 11.733333333333329,19.23333333333332 L -12.11666666666666,19.616666666666653 L -12.499999999999996,-19.999999999999982 L 12.883333333333324,-20.383333333333322 L 13.26666666666666,20.76666666666665 L -13.649999999999991,21.149999999999984 L -14.03333333333333,-21.533333333333314 L 14.416666666666655,-21.916666666666654 L 14.799999999999992,22.299999999999983 L -15.183333333333321,22.683333333333316 L -15.566666666666661,-23.06666666666664 L 15.949999999999985,-23.449999999999985 L 16.333333333333325,23.833333333333318 L -16.716666666666654,24.216666666666647 L -17.099999999999994,-24.599999999999977 L 17.483333333333317,-24.983333333333317 L 17.866666666666656,25.366666666666642 L -18.249999999999986,25.74999999999998 L -18.633333333333326,-26.133333333333308 L 19.016666666666648,-26.516666666666648 L 19.399999999999988,26.899999999999974 L -19.783333333333317,27.283333333333314 L -20.166666666666657,-27.66666666666664 L 20.54999999999998,-28.04999999999998 L 20.93333333333332,28.43333333333331 L -21.31666666666665,28.816666666666645 L -21.69999999999999,-29.19999999999997 L 22.08333333333331,-29.58333333333331 L 22.46666666666665,29.96666666666664 L -22.84999999999998,30.34999999999997 L -23.233333333333317,-30.733333333333302 L 23.616666666666646,-31.116666666666646" fill="none" stroke="#000000" stroke-width="0.061466666666666614"/>
</svg>
